<?xml version="1.0" encoding="UTF-8"?>
<svg width="200" height="200" viewBox="0 0 200 200" fill="none" xmlns="http://www.w3.org/2000/svg">
    <!-- Oq fon -->
    <rect width="200" height="200" rx="40" fill="#2C5AA0"/>
    
    <!-- Masjid gumbazi -->
    <path d="M100 40C70 40 50 60 50 80V120C50 140 70 160 100 160C130 160 150 140 150 120V80C150 60 130 40 100 40Z" fill="#D4A017"/>
    
    <!-- Yarim oy -->
    <path d="M100 60C120 60 135 75 135 95C135 115 120 130 100 130C80 130 65 115 65 95C65 75 80 60 100 60Z" fill="white"/>
    <path d="M100 70C115 70 125 80 125 95C125 110 115 120 100 120C85 120 75 110 75 95C75 80 85 70 100 70Z" fill="#2C5AA0"/>
    
    <!-- Yulduz -->
    <path d="M100 90L105 100L115 102L107 110L108 120L100 115L92 120L93 110L85 102L95 100L100 90Z" fill="#D4A017"/>
    
    <!-- Kitob -->
    <rect x="75" y="130" width="50" height="20" rx="4" fill="white"/>
    <path d="M90 135H110" stroke="#2C5AA0" stroke-width="2"/>
    <path d="M90 140H110" stroke="#2C5AA0" stroke-width="2"/>
    <path d="M90 145H110" stroke="#2C5AA0" stroke-width="2"/>
</svg>
