<?xml version="1.0" encoding="UTF-8"?>
<svg width="200" height="200" viewBox="0 0 200 200" xmlns="http://www.w3.org/2000/svg">
    <!-- Asosiy doira -->
    <circle cx="100" cy="100" r="95" fill="#2C5AA0" stroke="#D4A017" stroke-width="5"/>
    
    <!-- Kitob shakli -->
    <rect x="60" y="70" width="80" height="100" rx="10" fill="white"/>
    <path d="M80 85 L120 85 M80 100 L120 100 M80 115 L120 115" stroke="#2C5AA0" stroke-width="2"/>
    
    <!-- Yarim oy -->
    <path d="M100 125 C120 125 135 110 135 90 C135 70 120 55 100 55 C80 55 65 70 65 90 C65 110 80 125 100 125Z" fill="#D4A017"/>
    
    <!-- Yulduzcha -->
    <path d="M100 65 L105 75 L115 77 L107 85 L108 95 L100 90 L92 95 L93 85 L85 77 L95 75 L100 65Z" fill="white"/>
    
    <!-- Islomiy bezak -->
    <text x="100" y="170" text-anchor="middle" fill="white" font-family="Arial" font-size="18" font-weight="bold">
        ديني علم
    </text>
</svg>
